# xmcd
#
# Track frame offsets:
#	150
#	17455
#	36802
#	59156
#	72896
#	92308
#	109943
#	125235
#	143553
#	158145
#	175465
#	191103
#	201791
#
# Disc length: 2890 seconds
#
# Revision: 0
# Processed by: cddbd v1.5PL3 Copyright (c) Steve Scherf et al.
# Submitted via: dBpowerAMP V4.0
#
DISCID=b90b480d
DTITLE=The Cowlicks - C.W.A. (Cowboys With Attitude)
DYEAR=2003
DGENRE=
TTITLE0=Holdin' Back
TTITLE1=The #
TTITLE2=End of the Night
TTITLE3=Sea of Grass
TTITLE4=Stupid Girl
TTITLE5=Maybe I'm In Love
TTITLE6=Bessie's Song
TTITLE7=Maxfiled Parrish Sky
TTITLE8=You're So Boring
TTITLE9=Baby Please
TTITLE10=Stateline
TTITLE11=Drawn
TTITLE12=Mr. Spaceman
EXTD=
EXTT0=
EXTT1=
EXTT2=
EXTT3=
EXTT4=
EXTT5=
EXTT6=
EXTT7=
EXTT8=
EXTT9=
EXTT10=
EXTT11=
EXTT12=
PLAYORDER=
